HIERARCHY
ROOT Hips
{
	OFFSET 0.000000 100.481300 0.000000
	CHANNELS 6 Xposition Yposition Zposition Xrotation Yrotation Zrotation
	JOINT Spine
	{
		OFFSET -0.279200 12.230698 -2.892100
		CHANNELS 3 Xrotation Yrotation Zrotation
		JOINT Spine1
		{
			OFFSET -0.325700 14.269203 -3.374200
			CHANNELS 3 Xrotation Yrotation Zrotation
			JOINT Spine2
			{
				OFFSET -0.372300 16.307602 -0.352600
				CHANNELS 3 Xrotation Yrotation Zrotation
				JOINT Neck
				{
					OFFSET -0.418800 17.814194 8.416900
					CHANNELS 3 Xrotation Yrotation Zrotation
					JOINT Head
					{
						OFFSET 0.000000 7.031097 3.806800
						CHANNELS 3 Xrotation Yrotation Zrotation
						JOINT HeadTop_End
						{
							OFFSET 0.000000 24.646606 12.978600
							CHANNELS 3 Xrotation Yrotation Zrotation
							End Site
							{
								OFFSET 0.000000 27.854965 0.000000
							}
						}
					}
				}
				JOINT LeftShoulder
				{
					OFFSET 16.952999 14.495407 -7.737500
					CHANNELS 3 Xrotation Yrotation Zrotation
					JOINT LeftArm
					{
						OFFSET 9.308998 -2.777710 0.208600
						CHANNELS 3 Xrotation Yrotation Zrotation
						JOINT LeftForeArm
						{
							OFFSET 29.972298 0.000000 0.000000
							CHANNELS 3 Xrotation Yrotation Zrotation
							JOINT LeftHand
							{
								OFFSET 26.026505 0.000000 0.000000
								CHANNELS 3 Xrotation Yrotation Zrotation
								JOINT LeftHandThumb1
								{
									OFFSET 12.240501 -7.147949 9.207150
									CHANNELS 3 Xrotation Yrotation Zrotation
									JOINT LeftHandThumb2
									{
										OFFSET 4.138618 -2.389435 2.389433
										CHANNELS 3 Xrotation Yrotation Zrotation
										JOINT LeftHandThumb3
										{
											OFFSET 2.726913 -1.574387 1.574386
											CHANNELS 3 Xrotation Yrotation Zrotation
											JOINT LeftHandThumb4
											{
												OFFSET 3.941010 -2.275345 2.275342
												CHANNELS 3 Xrotation Yrotation Zrotation
												End Site
												{
													OFFSET -0.005798 5.087799 0.009903
												}
											}
										}
									}
								}
								JOINT LeftHandIndex1
								{
									OFFSET 24.424698 -1.985611 5.953459
									CHANNELS 3 Xrotation Yrotation Zrotation
									JOINT LeftHandIndex2
									{
										OFFSET 6.426697 0.000000 0.000000
										CHANNELS 3 Xrotation Yrotation Zrotation
										JOINT LeftHandIndex3
										{
											OFFSET 5.337898 0.000000 0.000000
											CHANNELS 3 Xrotation Yrotation Zrotation
											JOINT LeftHandIndex4
											{
												OFFSET 4.409401 0.000000 0.000000
												CHANNELS 3 Xrotation Yrotation Zrotation
												End Site
												{
													OFFSET 0.000000 4.409363 0.014373
												}
											}
										}
									}
								}
								JOINT LeftHandMiddle1
								{
									OFFSET 23.810104 0.000000 0.000000
									CHANNELS 3 Xrotation Yrotation Zrotation
									JOINT LeftHandMiddle2
									{
										OFFSET 7.176498 0.000000 0.000000
										CHANNELS 3 Xrotation Yrotation Zrotation
										JOINT LeftHandMiddle3
										{
											OFFSET 6.774902 0.000000 0.000000
											CHANNELS 3 Xrotation Yrotation Zrotation
											JOINT LeftHandMiddle4
											{
												OFFSET 5.403328 0.000000 0.000000
												CHANNELS 3 Xrotation Yrotation Zrotation
												End Site
												{
													OFFSET -0.027702 5.403244 0.017414
												}
											}
										}
									}
								}
								JOINT LeftHandRing1
								{
									OFFSET 22.908401 -0.839279 -6.020567
									CHANNELS 3 Xrotation Yrotation Zrotation
									JOINT LeftHandRing2
									{
										OFFSET 6.337502 0.000000 0.000000
										CHANNELS 3 Xrotation Yrotation Zrotation
										JOINT LeftHandRing3
										{
											OFFSET 5.779297 0.000000 0.000000
											CHANNELS 3 Xrotation Yrotation Zrotation
											JOINT LeftHandRing4
											{
												OFFSET 4.965698 0.000000 0.000000
												CHANNELS 3 Xrotation Yrotation Zrotation
												End Site
												{
													OFFSET 0.000000 4.965668 0.016186
												}
											}
										}
									}
								}
								JOINT LeftHandPinky1
								{
									OFFSET 20.037003 -1.530319 -10.950146
									CHANNELS 3 Xrotation Yrotation Zrotation
									JOINT LeftHandPinky2
									{
										OFFSET 5.254700 0.000000 0.000000
										CHANNELS 3 Xrotation Yrotation Zrotation
										JOINT LeftHandPinky3
										{
											OFFSET 4.810204 0.000000 0.000000
											CHANNELS 3 Xrotation Yrotation Zrotation
											JOINT LeftHandPinky4
											{
												OFFSET 3.647202 0.000000 0.000000
												CHANNELS 3 Xrotation Yrotation Zrotation
												End Site
												{
													OFFSET 0.000000 3.647186 0.011889
												}
											}
										}
									}
								}
							}
						}
					}
				}
				JOINT RightShoulder
				{
					OFFSET -15.141001 14.495407 -7.737500
					CHANNELS 3 Xrotation Yrotation Zrotation
					JOINT RightArm
					{
						OFFSET -9.308998 -2.777710 0.208500
						CHANNELS 3 Xrotation Yrotation Zrotation
						JOINT RightForeArm
						{
							OFFSET -29.972300 0.000000 0.000000
							CHANNELS 3 Xrotation Yrotation Zrotation
							JOINT RightHand
							{
								OFFSET -26.026505 0.000000 0.000000
								CHANNELS 3 Xrotation Yrotation Zrotation
								JOINT RightHandThumb1
								{
									OFFSET -12.240601 -7.148026 9.207092
									CHANNELS 3 Xrotation Yrotation Zrotation
									JOINT RightHandThumb2
									{
										OFFSET -4.138618 -2.389435 2.389433
										CHANNELS 3 Xrotation Yrotation Zrotation
										JOINT RightHandThumb3
										{
											OFFSET -2.726974 -1.574417 1.574421
											CHANNELS 3 Xrotation Yrotation Zrotation
											JOINT RightHandThumb4
											{
												OFFSET -3.941010 -2.275345 2.275343
												CHANNELS 3 Xrotation Yrotation Zrotation
												End Site
												{
													OFFSET 0.005814 5.087799 0.009927
												}
											}
										}
									}
								}
								JOINT RightHandIndex1
								{
									OFFSET -24.424698 -1.985657 5.953444
									CHANNELS 3 Xrotation Yrotation Zrotation
									JOINT RightHandIndex2
									{
										OFFSET -6.426697 0.000000 0.000000
										CHANNELS 3 Xrotation Yrotation Zrotation
										JOINT RightHandIndex3
										{
											OFFSET -5.337898 0.000000 0.000000
											CHANNELS 3 Xrotation Yrotation Zrotation
											JOINT RightHandIndex4
											{
												OFFSET -4.409401 0.000000 0.000000
												CHANNELS 3 Xrotation Yrotation Zrotation
												End Site
												{
													OFFSET 0.000000 4.409363 0.014408
												}
											}
										}
									}
								}
								JOINT RightHandMiddle1
								{
									OFFSET -23.810097 0.000000 0.000000
									CHANNELS 3 Xrotation Yrotation Zrotation
									JOINT RightHandMiddle2
									{
										OFFSET -7.176498 0.000000 0.000000
										CHANNELS 3 Xrotation Yrotation Zrotation
										JOINT RightHandMiddle3
										{
											OFFSET -6.774902 0.000000 0.000000
											CHANNELS 3 Xrotation Yrotation Zrotation
											JOINT RightHandMiddle4
											{
												OFFSET -5.403328 0.000000 0.000000
												CHANNELS 3 Xrotation Yrotation Zrotation
												End Site
												{
													OFFSET 0.027702 5.403244 0.017457
												}
											}
										}
									}
								}
								JOINT RightHandRing1
								{
									OFFSET -22.908302 -0.839325 -6.020576
									CHANNELS 3 Xrotation Yrotation Zrotation
									JOINT RightHandRing2
									{
										OFFSET -6.337502 0.000000 0.000000
										CHANNELS 3 Xrotation Yrotation Zrotation
										JOINT RightHandRing3
										{
											OFFSET -5.779297 0.000000 0.000000
											CHANNELS 3 Xrotation Yrotation Zrotation
											JOINT RightHandRing4
											{
												OFFSET -4.965698 0.000000 0.000000
												CHANNELS 3 Xrotation Yrotation Zrotation
												End Site
												{
													OFFSET 0.000000 4.965668 0.016226
												}
											}
										}
									}
								}
								JOINT RightHandPinky1
								{
									OFFSET -20.037003 -1.530334 -10.950259
									CHANNELS 3 Xrotation Yrotation Zrotation
									JOINT RightHandPinky2
									{
										OFFSET -5.254700 0.000000 0.000000
										CHANNELS 3 Xrotation Yrotation Zrotation
										JOINT RightHandPinky3
										{
											OFFSET -4.810204 0.000000 0.000000
											CHANNELS 3 Xrotation Yrotation Zrotation
											JOINT RightHandPinky4
											{
												OFFSET -3.647202 0.000000 0.000000
												CHANNELS 3 Xrotation Yrotation Zrotation
												End Site
												{
													OFFSET 0.000000 3.647186 0.011917
												}
											}
										}
									}
								}
							}
						}
					}
				}
			}
		}
	}
	JOINT LeftUpLeg
	{
		OFFSET 15.427100 -6.655098 0.678600
		CHANNELS 3 Xrotation Yrotation Zrotation
		JOINT LeftLeg
		{
			OFFSET 4.081073 -39.591068 13.024000
			CHANNELS 3 Xrotation Yrotation Zrotation
			JOINT LeftFoot
			{
				OFFSET -4.081074 -37.707932 -15.979700
				CHANNELS 3 Xrotation Yrotation Zrotation
				JOINT LeftToeBase
				{
					OFFSET 5.346399 -15.068900 20.645000
					CHANNELS 3 Xrotation Yrotation Zrotation
					JOINT LeftToe_End
					{
						OFFSET 2.754700 0.931300 11.300900
						CHANNELS 3 Xrotation Yrotation Zrotation
						End Site
						{
							OFFSET 0.000000 11.669021 0.000000
						}
					}
				}
			}
		}
	}
	JOINT RightUpLeg
	{
		OFFSET -15.569500 -6.655098 0.678600
		CHANNELS 3 Xrotation Yrotation Zrotation
		JOINT RightLeg
		{
			OFFSET -4.081825 -39.591045 13.023800
			CHANNELS 3 Xrotation Yrotation Zrotation
			JOINT RightFoot
			{
				OFFSET 4.081824 -37.707954 -15.979600
				CHANNELS 3 Xrotation Yrotation Zrotation
				JOINT RightToeBase
				{
					OFFSET -5.346400 -15.068900 20.645000
					CHANNELS 3 Xrotation Yrotation Zrotation
					JOINT RightToe_End
					{
						OFFSET -2.754700 0.931300 11.300900
						CHANNELS 3 Xrotation Yrotation Zrotation
						End Site
						{
							OFFSET 0.000000 11.669021 0.000000
						}
					}
				}
			}
		}
	}
}
MOTION
Frames: 4
Frame Time: 0.033333
2.195108 72.839005 -1.714690 -5.400176 -46.432097 -0.526813 9.420034 7.435518 -1.366543 2.187715 0.989899 -0.915631 2.202831 0.982771 -0.894152 0.084650 13.220555 4.538681 8.920927 20.138147 -4.130237 0.000001 0.000000 0.000000 1.117176 3.546353 -8.633309 -53.487010 4.935499 -51.503014 -0.000158 -106.358067 -0.000160 1.988607 -7.706140 -15.869243 -6.141224 -11.690799 -6.761687 9.914098 42.595508 3.409884 -0.422810 8.108097 27.509103 0.000000 0.000002 -0.000000 0.255316 3.378222 -45.814341 5.654092 5.847749 -88.067441 2.162139 4.544814 -50.866389 0.000001 0.000002 0.000000 -0.461473 3.841594 -39.722686 6.450754 5.820357 -95.892844 2.182890 4.561567 -51.127733 0.000001 -0.000002 0.000000 0.469724 4.966826 -39.799451 8.181049 5.368616 -113.502998 3.200487 5.218117 -63.022982 -0.000002 -0.000001 -0.000000 -3.762430 9.063693 -45.253821 5.342539 5.829009 -85.005297 8.716834 5.103330 -119.369181 -0.000000 0.000000 -0.000000 3.036127 13.027204 -5.371408 -48.713715 27.172837 83.457064 0.000030 105.988273 -0.000024 -8.345374 17.548108 8.775667 -7.341119 13.749652 7.412352 9.855814 -44.489079 -3.903252 -0.115778 -14.513093 -28.973874 0.000000 0.000001 0.000001 -0.124375 -2.384786 45.108857 4.500581 -4.654539 88.071143 1.723227 -3.618379 50.920105 -0.000000 -0.000003 -0.000002 -0.761620 -2.932906 39.031058 5.133889 -4.632759 95.881663 1.739743 -3.631697 51.181363 0.000002 0.000002 0.000001 0.154760 -4.068814 39.122668 6.509730 -4.273596 113.462884 2.549582 -4.153924 63.067330 0.000000 0.000001 -0.000003 -4.198881 -8.025518 44.637786 4.252917 -4.639644 85.014805 6.935963 -4.062627 119.322271 -0.000003 0.000000 -0.000000 -34.255506 5.085940 20.300767 56.771720 -7.633993 3.672704 -20.133041 -7.078537 -17.222798 -1.594042 -0.000010 -0.000003 -0.000000 -0.000002 -0.000000 -19.408631 -8.980186 -34.667622 57.008017 -2.876363 -4.766530 -26.306549 -10.338601 26.246247 -0.013008 -0.000027 0.000000 -0.000000 -0.000002 0.000000 
2.020108 74.456497 -1.700886 -5.448184 -48.468494 -0.461662 8.309948 6.072414 -1.364926 4.269346 1.167225 -1.629219 4.283394 1.157994 -1.604047 -0.371276 10.879212 3.259372 -0.094210 24.891583 -2.647618 -0.000000 -0.000000 -0.000000 0.416179 2.793627 -5.330536 -43.962198 5.275067 -54.943917 -0.000047 -109.429111 -0.000047 -0.351729 -8.417147 -11.478607 -6.141221 -11.690799 -6.761686 9.914096 42.595505 3.409884 -0.422809 8.108099 27.509109 0.000003 0.000001 -0.000001 0.255313 3.378224 -45.814337 5.654091 5.847750 -88.067441 2.162142 4.544815 -50.866389 0.000002 0.000002 -0.000002 -0.461475 3.841595 -39.722683 6.450749 5.820358 -95.892844 2.182889 4.561565 -51.127736 0.000001 0.000000 0.000003 0.469722 4.966827 -39.799444 8.181043 5.368618 -113.502998 3.200487 5.218116 -63.022975 -0.000002 0.000000 0.000001 -3.762432 9.063693 -45.253818 5.342541 5.829009 -85.005297 8.716835 5.103334 -119.369181 0.000001 0.000001 -0.000000 4.924193 14.986028 -1.911213 -47.454447 31.171737 74.008043 -0.000012 108.038812 0.000006 -13.643736 16.916992 12.127365 -7.341118 13.749652 7.412352 9.855805 -44.489079 -3.903244 -0.115772 -14.513093 -28.973874 0.000000 -0.000002 0.000001 -0.124375 -2.384789 45.108857 4.500577 -4.654540 88.071143 1.723223 -3.618378 50.920098 -0.000000 -0.000000 -0.000001 -0.761620 -2.932907 39.031058 5.133892 -4.632761 95.881663 1.739741 -3.631696 51.181363 0.000000 0.000003 -0.000002 0.154759 -4.068818 39.122671 6.509731 -4.273597 113.462884 2.549580 -4.153923 63.067330 0.000001 0.000001 0.000001 -4.198880 -8.025519 44.637789 4.252918 -4.639641 85.014798 6.935965 -4.062629 119.322271 0.000002 0.000001 -0.000001 -31.317964 6.008570 20.285390 53.806082 -5.824705 3.805714 -19.993241 -6.808149 -18.459268 -1.597678 0.000008 0.000002 0.000000 0.000001 -0.000000 -20.135930 -9.221732 -34.244543 54.702995 -1.522647 -4.440848 -24.978415 -9.278186 24.241221 -0.013008 -0.000027 -0.000000 0.000000 -0.000001 -0.000000 
1.548479 77.074905 -1.164941 -3.751700 -50.218034 0.707248 6.214943 5.251570 -1.178095 5.975879 1.878098 -2.113715 5.993020 1.851292 -2.071499 -4.651932 7.390261 2.736339 -27.145803 25.933873 4.520925 0.000002 0.000001 0.000000 -0.164960 1.832366 -1.728162 -28.469924 0.930267 -61.128410 -0.000008 -107.778165 -0.000001 0.351655 -7.162953 -10.576303 -6.141223 -11.690798 -6.761683 9.914105 42.595508 3.409879 -0.422811 8.108099 27.509106 -0.000001 -0.000001 0.000001 0.255316 3.378221 -45.814341 5.654087 5.847750 -88.067441 2.162141 4.544813 -50.866386 0.000001 0.000001 -0.000005 -0.461474 3.841594 -39.722686 6.450750 5.820358 -95.892844 2.182890 4.561568 -51.127733 0.000000 0.000001 0.000001 0.469723 4.966827 -39.799444 8.181049 5.368617 -113.502998 3.200487 5.218119 -63.022975 -0.000001 0.000000 -0.000000 -3.762434 9.063693 -45.253818 5.342544 5.829010 -85.005297 8.716837 5.103333 -119.369167 0.000002 -0.000001 -0.000000 6.390192 17.375836 3.516894 -38.208580 35.309243 57.192398 0.000049 111.470374 -0.000063 -20.658341 10.793069 19.973625 -7.341121 13.749655 7.412350 9.855812 -44.489079 -3.903240 -0.115776 -14.513093 -28.973874 0.000001 -0.000000 -0.000001 -0.124374 -2.384785 45.108857 4.500575 -4.654539 88.071143 1.723225 -3.618375 50.920105 0.000002 -0.000001 0.000000 -0.761621 -2.932905 39.031058 5.133895 -4.632761 95.881663 1.739742 -3.631697 51.181360 0.000001 -0.000000 0.000002 0.154761 -4.068814 39.122671 6.509732 -4.273599 113.462884 2.549580 -4.153920 63.067324 -0.000004 -0.000000 -0.000000 -4.198880 -8.025518 44.637786 4.252922 -4.639641 85.014805 6.935965 -4.062632 119.322271 -0.000002 -0.000003 -0.000001 -28.366515 7.031902 19.658811 49.272824 -3.618316 4.178499 -19.424795 -6.633256 -19.599158 -1.597120 -0.000021 -0.000003 0.000000 -0.000000 -0.000000 -20.268429 -10.125969 -33.210142 50.101367 0.293532 -3.591660 -22.802665 -9.075160 21.823564 -0.013008 -0.000027 -0.000000 0.000000 -0.000001 0.000000 
1.027844 80.024620 -0.237606 -2.695903 -51.903437 1.611640 4.299042 4.755666 -0.823227 7.683220 2.803720 -2.578059 7.703003 2.763576 -2.516294 -10.686529 3.287812 2.972170 -57.524010 21.759222 10.843538 -0.000001 0.000000 -0.000000 -0.502418 0.229963 1.905306 -13.776994 -3.477079 -64.612189 0.000011 -103.515881 -0.000001 5.945041 -1.260947 -18.394813 -6.141224 -11.690797 -6.761682 9.914101 42.595505 3.409883 -0.422816 8.108104 27.509111 -0.000001 -0.000002 -0.000002 0.255315 3.378222 -45.814337 5.654092 5.847751 -88.067441 2.162139 4.544814 -50.866386 0.000000 0.000001 -0.000001 -0.461471 3.841592 -39.722686 6.450749 5.820359 -95.892837 2.182892 4.561564 -51.127729 0.000001 0.000002 -0.000001 0.469724 4.966828 -39.799444 8.181047 5.368618 -113.502998 3.200486 5.218119 -63.022982 -0.000003 -0.000000 0.000002 -3.762429 9.063692 -45.253825 5.342539 5.829006 -85.005297 8.716833 5.103332 -119.369181 -0.000002 0.000000 -0.000002 7.332571 20.751231 8.265839 -27.448278 37.050013 39.245645 0.000058 113.920923 -0.000060 -24.309909 -0.861282 27.234787 -7.341116 13.749653 7.412349 9.855809 -44.489086 -3.903249 -0.115779 -14.513093 -28.973871 0.000001 -0.000000 0.000001 -0.124370 -2.384786 45.108857 4.500576 -4.654538 88.071143 1.723223 -3.618374 50.920098 0.000001 0.000003 -0.000004 -0.761617 -2.932905 39.031058 5.133890 -4.632762 95.881663 1.739741 -3.631702 51.181363 -0.000000 0.000002 -0.000001 0.154763 -4.068813 39.122671 6.509728 -4.273597 113.462884 2.549580 -4.153928 63.067330 0.000003 0.000000 -0.000000 -4.198879 -8.025517 44.637783 4.252917 -4.639642 85.014805 6.935965 -4.062629 119.322271 0.000002 0.000001 -0.000001 -24.320851 8.324333 18.479873 43.906375 -1.316319 4.414650 -18.541860 -6.615741 -20.373804 -1.602588 0.000006 0.000001 0.000000 0.000001 0.000000 -19.286793 -11.399013 -32.238548 44.399085 2.106189 -3.203430 -20.133690 -9.089565 19.997494 -0.013008 -0.000028 0.000000 0.000000 -0.000001 0.000000 
